<svg width="62" height="62" viewBox="0 0 62 62" fill="none" xmlns="http://www.w3.org/2000/svg">
  <path
    d="M1 31C4.79672 24.4366 11.8931 20.0208 20.0208 20.0208C20.0208 11.8931 24.4366 4.79672 31 1C37.5634 4.79672 41.9792 11.8931 41.9792 20.0208C50.1069 20.0208 57.2033 24.4366 61 31C57.2033 37.5634 50.1069 41.9792 41.9792 41.9792C41.9792 50.1069 37.5634 57.2033 31 61C24.4366 57.2033 20.0208 50.1069 20.0208 41.9792C11.8931 41.9792 4.79672 37.5634 1 31Z"
    fill="black" />
  <path
    d="M61 31C61 47.5685 47.5685 61 31 61C14.4315 61 1 47.5685 1 31C1 14.4315 14.4315 1 31 1C47.5685 1 61 14.4315 61 31Z"
    fill="black" />
  <path
    d="M41.9792 20.0208C41.9792 24.0204 40.9099 27.7702 39.0416 31M41.9792 20.0208C37.9796 20.0208 34.2298 21.0901 31 22.9584M41.9792 20.0208C41.9792 11.8931 37.5634 4.79672 31 1M41.9792 20.0208C50.1069 20.0208 57.2033 24.4366 61 31M39.0416 31C37.1132 34.3336 34.3336 37.1132 31 39.0416M39.0416 31C37.1132 27.6664 34.3336 24.8868 31 22.9584M39.0416 31C40.9099 34.2298 41.9792 37.9796 41.9792 41.9792M31 39.0416C27.7702 40.9099 24.0204 41.9792 20.0208 41.9792M31 39.0416C34.2298 40.9099 37.9796 41.9792 41.9792 41.9792M31 39.0416C27.6664 37.1132 24.8868 34.3336 22.9584 31M20.0208 41.9792C20.0208 37.9796 21.0901 34.2298 22.9584 31M20.0208 41.9792C11.8931 41.9792 4.79672 37.5634 1 31M20.0208 41.9792C20.0208 50.1069 24.4366 57.2033 31 61M41.9792 41.9792C41.9792 50.1069 37.5634 57.2033 31 61M41.9792 41.9792C50.1069 41.9792 57.2033 37.5634 61 31M22.9584 31C21.0901 27.7702 20.0208 24.0204 20.0208 20.0208M22.9584 31C24.8868 27.6664 27.6664 24.8868 31 22.9584M20.0208 20.0208C24.0204 20.0208 27.7702 21.0901 31 22.9584M20.0208 20.0208C11.8931 20.0208 4.79672 24.4366 1 31M20.0208 20.0208C20.0208 11.8931 24.4366 4.79672 31 1M1 31C1 47.5685 14.4315 61 31 61M1 31C1 14.4315 14.4315 1 31 1M31 1C47.5685 1 61 14.4315 61 31M31 61C47.5685 61 61 47.5685 61 31"
    stroke="white" stroke-width="2" stroke-linecap="round" stroke-linejoin="round" />
</svg>